<?xml version="1.0" encoding="UTF-8"?><!DOCTYPE svg PUBLIC "-//W3C//DTD SVG 1.1//EN" "http://www.w3.org/Graphics/SVG/1.1/DTD/svg11.dtd"><svg xmlns="http://www.w3.org/2000/svg" xmlns:xlink="http://www.w3.org/1999/xlink"><symbol id="twitter" viewBox="0 0 20 16"><path d="M0 14.21A11.857 11.857 0 0 0 6.289 16c7.618 0 11.917-6.24 11.66-11.84A8.24 8.24 0 0 0 20 2.1a8.39 8.39 0 0 1-2.35.63 4.021 4.021 0 0 0 1.804-2.2c-.794.46-1.67.79-2.609.97a4.178 4.178 0 0 0-2.99-1.26c-2.649 0-4.597 2.4-4 4.89C6.444 4.96 3.424 3.38 1.403.97.33 2.76.845 5.1 2.67 6.28c-.67-.02-1.31-.2-1.856-.5-.04 1.84 1.32 3.57 3.29 3.95-.578.15-1.207.19-1.857.07.526 1.58 2.031 2.73 3.835 2.76A8.43 8.43 0 0 1 .01 14.21H0Z"/></symbol></svg>